<?xml version="1.0" encoding="utf-8"?>
<svg width="1059px" height="227px" viewbox="0 0 1059 227" version="1.1" xmlns:xlink="http://www.w3.org/1999/xlink" xmlns="http://www.w3.org/2000/svg">
  <defs>
    <path d="M0 0L219 0L219 183.587L0 183.587L0 0Z" id="path_1" />
    <path d="M0 0L172.015 0L172.015 171.783L0 171.783L0 0Z" id="path_2" />
    <rect width="1059" height="227" id="artboard_1" />
    <clipPath id="clip_1">
      <use xlink:href="#artboard_1" clip-rule="evenodd" />
    </clipPath>
    <clipPath id="mask_1">
      <use xlink:href="#path_1" />
    </clipPath>
    <clipPath id="mask_2">
      <use xlink:href="#path_2" />
    </clipPath>
  </defs>
  <g id="Artboard" clip-path="url(#clip_1)">
    <use xlink:href="#artboard_1" stroke="none" fill="#FFFFFF" fill-opacity="0" />
    <g id="PHYSIOTHRIVE" transform="translate(219 0)">
      <g id="PHYSIO">
        <path d="M275.388 85.9L281.943 80.61Q278.838 76.355 272.743 73.5375Q266.648 70.72 258.943 70.72Q252.503 70.72 246.81 72.9625Q241.118 75.205 237.035 80.4375Q232.953 85.67 232.953 93.145Q232.953 98.435 234.735 102.402Q236.518 106.37 239.968 108.9Q243.418 111.43 246.695 112.925Q249.973 114.42 254.803 115.915Q258.943 117.18 260.955 117.87Q262.967 118.56 266.13 120.112Q269.293 121.665 270.788 123.275Q272.283 124.885 273.49 127.472Q274.698 130.06 274.698 133.395Q274.698 140.755 269.178 144.952Q263.658 149.15 256.643 149.15Q250.548 149.15 245.718 146.332Q240.888 143.515 238.013 138.915L230.883 144.205Q235.138 150.07 241.98 153.175Q248.823 156.28 256.527 156.28Q267.223 156.28 275.158 150.242Q283.092 144.205 283.092 132.82Q283.092 129.37 282.23 126.495Q281.368 123.62 280.39 121.665Q279.413 119.71 277.055 117.755Q274.698 115.8 273.375 114.822Q272.052 113.845 268.66 112.465Q265.268 111.085 264.06 110.682Q262.853 110.28 258.943 109.015Q255.148 107.75 253.48 107.175Q251.813 106.6 248.88 105.105Q245.948 103.61 244.683 102.23Q243.418 100.85 242.325 98.435Q241.233 96.02 241.233 93.03Q241.233 85.785 246.523 81.76Q251.813 77.735 258.598 77.735Q269.638 77.735 275.388 85.9ZM411.202 113.5Q411.202 94.985 399.128 82.8525Q387.052 70.72 368.767 70.72Q350.482 70.72 338.408 82.8525Q326.332 94.985 326.332 113.5Q326.332 132.015 338.408 144.147Q350.482 156.28 368.767 156.28Q387.052 156.28 399.128 144.147Q411.202 132.015 411.202 113.5ZM17.4425 72.79L17.4425 154.21L25.7225 154.21L25.7225 116.375L40.2125 116.375Q52.9775 116.375 60.4525 110.797Q67.9275 105.22 67.9275 94.525Q67.9275 83.83 60.5675 78.31Q53.2075 72.79 40.4425 72.79L17.4425 72.79ZM84.1425 72.79L84.1425 154.21L92.4225 154.21L92.4225 115.685L136.813 115.685L136.813 154.21L145.092 154.21L145.092 72.79L136.813 72.79L136.813 108.095L92.4225 108.095L92.4225 72.79L84.1425 72.79ZM194.658 119.135L194.658 154.21L186.378 154.21L186.378 119.135L155.902 72.79L166.253 72.79L190.747 112.235L215.473 72.79L225.133 72.79L194.658 119.135ZM309.082 72.79L309.082 154.21L300.802 154.21L300.802 72.79L309.082 72.79ZM402.462 113.5Q402.462 128.335 393.205 138.627Q383.948 148.92 368.767 148.92Q353.587 148.92 344.33 138.627Q335.072 128.335 335.072 113.5Q335.072 98.665 344.33 88.315Q353.587 77.965 368.767 77.965Q383.947 77.965 393.205 88.315Q402.462 98.665 402.462 113.5ZM25.7225 109.36L25.7225 79.92L39.7525 79.92Q59.6475 79.92 59.6475 94.525Q59.6475 101.77 54.53 105.565Q49.4125 109.36 39.7525 109.36L25.7225 109.36Z" />
      </g>
      <g id="THRIVE">
        <path d="M460.882 89.58L483.883 89.58L483.883 72.79L418.217 72.79L418.217 89.58L441.217 89.58L441.217 154.21L460.882 154.21L460.882 89.58ZM544.258 154.21L563.922 154.21L563.922 72.79L544.258 72.79L544.258 103.61L512.518 103.61L512.518 72.79L492.852 72.79L492.852 154.21L512.518 154.21L512.518 120.17L544.258 120.17L544.258 154.21ZM647.297 154.21L624.297 154.21L606.703 121.895L600.033 121.895L600.033 154.21L580.713 154.21L580.713 72.79L611.763 72.79Q617.973 72.79 623.263 74.055Q628.552 75.32 633.153 78.08Q637.753 80.84 640.34 85.785Q642.927 90.73 642.927 97.4Q642.927 105.45 638.443 111.2Q633.958 116.95 626.023 119.365L647.297 154.21ZM656.958 154.21L676.737 154.21L676.737 72.79L656.958 72.79L656.958 154.21ZM765.288 72.79L733.893 154.21L714.228 154.21L683.408 72.79L705.487 72.79L724.348 130.52L724.807 130.52L743.552 72.79L765.288 72.79ZM771.958 154.21L828.768 154.21L828.768 137.42L790.932 137.42L790.932 120.515L824.742 120.515L824.742 104.76L790.932 104.76L790.932 89.465L826.698 89.465L826.698 72.79L771.958 72.79L771.958 154.21ZM623.492 97.745Q623.492 88.66 610.383 88.66L599.917 88.66L599.917 107.635L609.232 107.635Q623.492 107.635 623.492 97.745Z" />
      </g>
    </g>
    <g id="Copy-of-Physio-thrive" transform="translate(1 23)">
      <path d="M0 0L219 0L219 183.587L0 183.587L0 0Z" id="Background" fill="none" fill-rule="evenodd" stroke="none" />
      <g clip-path="url(#mask_1)">
        <g id="surface1" transform="translate(23.393738 5.5914917)">
          <g id="Mask-group">
            <path d="M0 0L172.015 0L172.015 171.783L0 171.783L0 0Z" id="Shape" fill="none" fill-rule="evenodd" stroke="none" />
            <g clip-path="url(#mask_2)">
              <g id="Group" transform="translate(0.19319153 0.12741089)">
                <path d="M151.3 0C139.959 0 130.777 9.18203 130.777 20.5228C130.777 31.8623 139.959 41.0443 151.3 41.0443C162.64 41.0443 171.822 31.8623 171.822 20.5228C171.822 9.18203 162.64 0 151.3 0L151.3 0ZM88.6833 10.9609C84.0917 11.0192 79.5583 12.4619 76.3233 15.5089L44.4902 46.8748C42.2745 49.0614 41.0938 51.9179 41.1084 55.0376C41.1229 58.1561 42.3618 61.0429 44.6067 63.1991C48.9787 67.4121 55.8879 67.5578 60.3485 63.4333L87.8667 38.0131L103.492 49.673L94.3962 60.4009C108.214 62.3546 120.515 68.9714 129.611 78.708L138.24 66.6974C144.391 58.1998 142.715 46.4962 134.392 40.1124L101.509 14.9252C97.9964 12.2289 93.2738 10.9027 88.6833 10.9609L88.6833 10.9609ZM86.0004 67.1646C80.4478 67.1646 75.0541 67.9946 70.0256 69.6133C68.7722 70.021 67.5041 70.5161 66.2943 71.0124C65.1137 71.4929 63.933 72.0766 62.7972 72.6445C61.6311 73.2281 60.4068 73.8397 59.2989 74.5107C52.6517 78.4896 46.9389 83.9403 42.6239 90.369C41.9832 91.3301 41.4578 92.2778 40.8754 93.2837L18.837 93.2837C18.7206 93.2837 18.6041 93.2837 18.4864 93.2837C16.432 93.3856 14.8279 95.1342 14.931 97.1897C15.0329 99.2453 16.7815 100.848 18.837 100.746L59.8813 100.746C61.9369 100.746 63.6126 102.408 63.6126 104.478C63.6126 106.548 61.9369 108.209 59.8813 108.209L35.0448 108.209C34.6517 110.017 34.3156 111.824 34.1117 113.69C34.0389 114.331 34.0389 115.016 33.9952 115.672L3.91185 115.672C3.79415 115.672 3.67766 115.672 3.56117 115.672C1.50683 115.773 -0.0973257 117.523 0.00460251 119.578C0.106531 121.633 1.8563 123.236 3.91185 123.134L78.5378 123.134C80.5934 123.134 82.2691 124.797 82.2691 126.865C82.2691 128.936 80.5934 130.597 78.5378 130.597L35.0448 130.597C35.6127 133.176 36.3274 135.64 37.2606 138.059L22.5683 138.059C22.4519 138.059 22.3354 138.059 22.2177 138.059C20.1633 138.161 18.5604 139.911 18.6623 141.967C18.7642 144.021 20.5128 145.625 22.5683 145.522L59.8813 145.522C61.9369 145.522 63.6126 147.184 63.6126 149.253C63.6126 151.323 61.9369 152.986 59.8813 152.986L46.0058 152.986C48.3962 155.828 51.107 158.393 54.0508 160.681C55.5239 161.818 57.0104 162.97 58.5988 163.945C66.5722 168.887 75.9581 171.642 86.0004 171.642C105.765 171.642 123.067 160.594 131.943 144.356C131.958 144.327 131.929 144.268 131.943 144.239C135.966 136.835 138.24 128.411 138.24 119.403C138.24 110.366 135.995 101.869 131.943 94.4498C131.141 92.9634 130.194 91.6371 129.262 90.2513C124.583 83.3287 118.315 77.4836 110.955 73.4611C110.926 73.4465 110.867 73.4757 110.838 73.4611C103.434 69.4386 95.009 67.1646 86.0004 67.1646L86.0004 67.1646ZM142.904 101.563C144.682 107.203 145.702 113.179 145.702 119.403C145.702 137.375 137.656 153.466 125.063 164.413C126.04 164.646 127.002 164.762 127.979 164.762C132.847 164.762 137.583 162.022 139.639 157.299L153.749 124.65C157.422 116.211 153.631 106.255 145.237 102.495L142.904 101.563Z" id="Shape" fill="#000000" fill-rule="evenodd" stroke="none" />
              </g>
            </g>
          </g>
        </g>
      </g>
    </g>
  </g>
</svg>