<?xml version="1.0" encoding="utf-8"?>
<svg width="1000px" height="1000px" viewbox="0 0 1000 1000" version="1.1" xmlns:xlink="http://www.w3.org/1999/xlink" xmlns="http://www.w3.org/2000/svg">
  <defs>
    <rect width="1000" height="1000" id="artboard_1" />
    <clipPath id="clip_1">
      <use xlink:href="#artboard_1" clip-rule="evenodd" />
    </clipPath>
  </defs>
  <g id="Ultra-HD" clip-path="url(#clip_1)">
    <use xlink:href="#artboard_1" stroke="none" fill="#FFFFFF" fill-opacity="0" />
    <g id="Copy-of-Physio-thrive" transform="translate(32.181152 95)">
      <g id="surface1">
        <g id="Mask-group" transform="translate(-1.5409492E-05 0)">
          <g id="Group">
            <path d="M823.911 0C762.154 0 712.153 43.7591 712.153 97.8059C712.153 151.847 762.154 195.606 823.911 195.606C885.661 195.606 935.662 151.847 935.662 97.8059C935.662 43.7591 885.661 0 823.911 0L823.911 0ZM482.929 52.2368C457.925 52.5143 433.238 59.3902 415.622 73.911L242.273 223.393C230.207 233.813 223.778 247.426 223.857 262.294C223.937 277.156 230.683 290.914 242.908 301.19C266.715 321.268 304.34 321.962 328.63 302.306L478.482 181.16L563.57 236.728L514.038 287.854C589.281 297.165 656.271 328.699 705.803 375.101L752.791 317.862C786.286 277.364 777.161 221.588 731.838 191.165L552.773 71.1294C533.644 58.2799 507.926 51.9592 482.929 52.2368L482.929 52.2368ZM468.319 320.088C438.082 320.088 408.71 324.044 381.328 331.758C374.502 333.701 367.597 336.061 361.009 338.426C354.579 340.716 348.15 343.497 341.965 346.204C335.615 348.985 328.948 351.9 322.915 355.098C286.717 374.06 255.608 400.037 232.11 430.674C228.622 435.254 225.76 439.771 222.589 444.565L102.578 444.565C101.944 444.565 101.309 444.565 100.668 444.565C89.4813 445.051 80.7458 453.384 81.3075 463.18C81.8625 472.976 91.3844 480.615 102.578 480.129L326.086 480.129C337.28 480.129 346.405 488.046 346.405 497.912C346.405 507.777 337.28 515.694 326.086 515.694L190.838 515.694C188.697 524.311 186.867 532.921 185.757 541.815C185.36 544.869 185.36 548.136 185.122 551.259L21.3021 551.259C20.6612 551.259 20.0268 551.259 19.3925 551.259C8.2055 551.745 -0.529999 560.084 0.0250554 569.874C0.58011 579.67 10.1085 587.309 21.3021 586.824L427.681 586.824C438.875 586.824 448 594.746 448 604.606C448 614.472 438.875 622.388 427.681 622.388L190.838 622.388C193.931 634.683 197.823 646.422 202.904 657.953L122.897 657.953C122.263 657.953 121.628 657.953 120.987 657.953C109.8 658.439 101.071 666.778 101.626 676.574C102.181 686.364 111.703 694.009 122.897 693.518L326.086 693.518C337.28 693.518 346.405 701.44 346.405 711.3C346.405 721.166 337.28 729.088 326.086 729.088L250.526 729.088C263.544 742.632 278.306 754.857 294.336 765.763C302.358 771.182 310.452 776.67 319.102 781.319C362.522 804.867 413.633 818 468.319 818C575.947 818 670.167 765.347 718.503 687.96C718.583 687.822 718.424 687.544 718.503 687.405C740.408 652.118 752.791 611.973 752.791 569.041C752.791 525.976 740.567 485.479 718.503 450.122C714.135 443.038 708.975 436.717 703.9 430.113C678.42 397.122 644.291 369.266 604.208 350.096C604.05 350.026 603.733 350.165 603.574 350.096C563.253 330.925 517.375 320.088 468.319 320.088L468.319 320.088ZM778.191 484.021C787.872 510.9 793.429 539.381 793.429 569.041C793.429 654.691 749.613 731.378 681.037 783.546C686.356 784.656 691.596 785.211 696.916 785.211C723.426 785.211 749.216 772.153 760.41 749.646L837.245 594.046C857.247 553.832 836.604 506.384 790.892 488.463L778.191 484.021Z" id="Shape" fill="#000000" fill-rule="evenodd" stroke="none" />
          </g>
        </g>
      </g>
    </g>
  </g>
</svg>